<svg xmlns="http://www.w3.org/2000/svg" viewBox="0 0 1200 675" role="img" aria-label="Client diagnostic dashboard detail view">
  <rect width="1200" height="675" fill="#0f172a"/>
  <text x="48" y="48" fill="#e2e8f0" font-family="sans-serif" font-size="22" font-weight="700">WS-ACME-02  Detail View</text>
  <text x="48" y="74" fill="#94a3b8" font-family="sans-serif" font-size="13">Acme Logistics · Last sync 2 min ago</text>
  <rect x="48" y="100" width="360" height="140" rx="12" fill="#1e293b" stroke="#334155"/>
  <text x="68" y="132" fill="#94a3b8" font-size="13" font-family="sans-serif">CPU usage</text>
  <text x="68" y="175" fill="#ef4444" font-size="40" font-weight="700" font-family="sans-serif">89%</text>
  <polyline points="68,210 100,205 130,200 160,195 190,198 220,192 250,188 280,190 310,185 340,182 370,178" fill="none" stroke="#ef4444" stroke-width="2"/>
  <rect x="430" y="100" width="360" height="140" rx="12" fill="#1e293b" stroke="#334155"/>
  <text x="450" y="132" fill="#94a3b8" font-size="13" font-family="sans-serif">Memory</text>
  <text x="450" y="175" fill="#f59e0b" font-size="40" font-weight="700" font-family="sans-serif">92%</text>
  <polyline points="450,210 480,208 510,205 540,200 570,198 600,195 630,192 660,190 690,188 720,185 750,182" fill="none" stroke="#f59e0b" stroke-width="2"/>
  <rect x="812" y="100" width="340" height="140" rx="12" fill="#1e293b" stroke="#334155"/>
  <text x="832" y="132" fill="#94a3b8" font-size="13" font-family="sans-serif">Disk</text>
  <text x="832" y="175" fill="#e2e8f0" font-size="40" font-weight="700" font-family="sans-serif">67%</text>
  <text x="832" y="210" fill="#64748b" font-size="12" font-family="sans-serif">142 GB free of 430 GB</text>
  <rect x="48" y="270" width="550" height="360" rx="12" fill="#1e293b" stroke="#334155"/>
  <text x="68" y="302" fill="#e2e8f0" font-size="16" font-weight="600" font-family="sans-serif">Process snapshot</text>
  <text x="68" y="334" fill="#94a3b8" font-size="12" font-family="monospace">process · cpu% · mem_mb</text>
  <text x="68" y="362" fill="#e2e8f0" font-size="12" font-family="monospace">chrome.exe · 34.2 · 1,840</text>
  <text x="68" y="390" fill="#e2e8f0" font-size="12" font-family="monospace">outlook.exe · 18.7 · 920</text>
  <text x="68" y="418" fill="#ef4444" font-size="12" font-family="monospace">backup_agent.exe · 12.1 · 640</text>
  <text x="68" y="446" fill="#e2e8f0" font-size="12" font-family="monospace">sqlservr.exe · 8.4 · 2,100</text>
  <text x="68" y="474" fill="#e2e8f0" font-size="12" font-family="monospace">explorer.exe · 2.1 · 180</text>
  <rect x="68" y="510" width="500" height="90" rx="8" fill="#172033" stroke="#334155"/>
  <text x="88" y="540" fill="#3b82f6" font-size="12" font-weight="600" font-family="sans-serif">Suggested action</text>
  <text x="88" y="564" fill="#94a3b8" font-size="12" font-family="sans-serif">Investigate backup_agent.exe  scheduled during business hours</text>
  <text x="88" y="584" fill="#64748b" font-size="11" font-family="sans-serif">Similar pattern resolved 3x in last 30 days</text>
  <rect x="630" y="270" width="522" height="360" rx="12" fill="#1e293b" stroke="#334155"/>
  <text x="650" y="302" fill="#e2e8f0" font-size="16" font-weight="600" font-family="sans-serif">Event log  last 24h</text>
  <text x="650" y="334" fill="#ef4444" font-size="12" font-family="monospace">14:22 · CPU threshold exceeded (85%)</text>
  <text x="650" y="358" fill="#f59e0b" font-size="12" font-family="monospace">13:45 · Memory warning (80%)</text>
  <text x="650" y="382" fill="#94a3b8" font-size="12" font-family="monospace">11:30 · Windows update installed</text>
  <text x="650" y="406" fill="#94a3b8" font-size="12" font-family="monospace">09:15 · Agent heartbeat OK</text>
  <text x="650" y="430" fill="#22c55e" font-size="12" font-family="monospace">08:00 · Daily health check passed</text>
  <rect x="650" y="470" width="482" height="130" rx="8" fill="#172033" stroke="#334155"/>
  <text x="670" y="500" fill="#94a3b8" font-size="12" font-family="sans-serif">Cross-client comparison</text>
  <rect x="670" y="515" width="120" height="12" rx="3" fill="#334155"/><rect x="670" y="515" width="107" height="12" rx="3" fill="#ef4444"/>
  <text x="800" y="525" fill="#64748b" font-size="11" font-family="sans-serif">This endpoint (89%)</text>
  <rect x="670" y="545" width="120" height="12" rx="3" fill="#334155"/><rect x="670" y="545" width="41" height="12" rx="3" fill="#22c55e"/>
  <text x="800" y="555" fill="#64748b" font-size="11" font-family="sans-serif">Fleet average (34%)</text>
</svg>
