<svg xmlns="http://www.w3.org/2000/svg" viewBox="0 0 1200 630" role="img" aria-label="Lead intelligence pipeline mockup">
  <defs>
    <linearGradient id="g" x1="0%" y1="0%" x2="100%" y2="100%">
      <stop offset="0%" stop-color="#052E16"/>
      <stop offset="100%" stop-color="#16A34A"/>
    </linearGradient>
  </defs>
  <rect width="1200" height="630" fill="url(#g)"/>
  <rect x="48" y="40" width="1104" height="550" rx="16" fill="#0a120e" stroke="#1a3d28" stroke-width="2"/>
  <text x="72" y="78" fill="#86efac" font-family="monospace" font-size="13">lead_pipeline.py  running</text>
  <text x="1050" y="78" fill="#22c55e" font-family="monospace" font-size="13" text-anchor="end">Ď LIVE</text>
  <g transform="translate(72,100)">
    <rect width="200" height="100" rx="10" fill="#111916" stroke="#166534"/>
    <text x="16" y="32" fill="#9ca3af" font-size="12" font-family="sans-serif">Records scraped</text>
    <text x="16" y="68" fill="#4ade80" font-size="32" font-weight="700" font-family="sans-serif">524</text>
    <rect x="220" width="200" height="100" rx="10" fill="#111916" stroke="#166534"/>
    <text x="236" y="32" fill="#9ca3af" font-size="12" font-family="sans-serif">Clean records</text>
    <text x="236" y="68" fill="#e7ebf2" font-size="32" font-weight="700" font-family="sans-serif">498</text>
    <rect x="440" width="200" height="100" rx="10" fill="#111916" stroke="#166534"/>
    <text x="456" y="32" fill="#9ca3af" font-size="12" font-family="sans-serif">Categories</text>
    <text x="456" y="68" fill="#e7ebf2" font-size="32" font-weight="700" font-family="sans-serif">38</text>
    <rect x="660" width="420" height="100" rx="10" fill="#111916" stroke="#166534"/>
    <text x="676" y="32" fill="#9ca3af" font-size="12" font-family="sans-serif">Pipeline stages</text>
    <text x="676" y="58" fill="#4ade80" font-size="12" font-family="monospace">scrape ’ clean ’ dedupe ’ export</text>
    <polyline points="676,78 720,78 720,68 780,68 780,78 820,78 820,68 880,68 880,78 920,78" fill="none" stroke="#22c55e" stroke-width="2"/>
    <circle cx="920" cy="78" r="4" fill="#22c55e"/>
  </g>
  <rect x="72" y="220" width="1056" height="340" rx="10" fill="#111916" stroke="#166534"/>
  <text x="92" y="252" fill="#e7ebf2" font-size="15" font-weight="600" font-family="sans-serif">Structured output preview</text>
  <text x="92" y="280" fill="#6b7280" font-size="11" font-family="monospace">business_name · category · phone · city · source</text>
  <line x1="92" y1="290" x2="1108" y2="290" stroke="#1a3d28"/>
  <text x="92" y="318" fill="#d1fae5" font-size="12" font-family="monospace">Bayou Auto Repair · Automotive · (318) 555-0142 · Monroe · yellowpages</text>
  <text x="92" y="342" fill="#d1fae5" font-size="12" font-family="monospace">Cypress Dental Group · Healthcare · (318) 555-0198 · West Monroe · google_maps</text>
  <text x="92" y="366" fill="#d1fae5" font-size="12" font-family="monospace">Delta HVAC Services · Home Services · (318) 555-0211 · Monroe · chamber_dir</text>
  <text x="92" y="390" fill="#d1fae5" font-size="12" font-family="monospace">Magnolia Law Firm · Legal · (318) 555-0267 · Monroe · yellowpages</text>
  <text x="92" y="414" fill="#d1fae5" font-size="12" font-family="monospace">Red River Realty · Real Estate · (318) 555-0314 · Monroe · google_maps</text>
  <text x="92" y="438" fill="#6b7280" font-size="12" font-family="monospace">& 493 more rows · exported to leads_clean.csv + SQL table</text>
  <rect x="92" y="470" width="320" height="70" rx="8" fill="#052e16" stroke="#166534"/>
  <polyline points="110,520 140,500 170,510 200,485 230,495 260,470 290,480 320,465 350,475 380,460" fill="none" stroke="#4ade80" stroke-width="2"/>
  <text x="430" y="505" fill="#9ca3af" font-size="12" font-family="sans-serif">Records processed over time</text>
  <text x="430" y="528" fill="#6b7280" font-size="11" font-family="sans-serif">Fully automated  zero manual steps</text>
</svg>
